<svg xmlns="http://www.w3.org/2000/svg" width="128" height="128" viewBox="0 0 24 24" fill="none" class="injected-svg" data-src="https://cdn.hugeicons.com/icons/search-02-duotone-rounded.svg?v=3.0" xmlns:xlink="http://www.w3.org/1999/xlink" role="img" color="#f5a623">
<path opacity="0.4" d="M16.9333 19.0252C16.3556 18.4475 16.3556 17.5109 16.9333 16.9333C17.5109 16.3556 18.4475 16.3556 19.0252 16.9333L21.0667 18.9748C21.6444 19.5525 21.6444 20.4891 21.0667 21.0667C20.4891 21.6444 19.5525 21.6444 18.9748 21.0667L16.9333 19.0252Z" fill="#f5a623"></path>
<path opacity="0.4" d="M16.5 9.5C16.5 5.63401 13.366 2.5 9.5 2.5C5.63401 2.5 2.5 5.63401 2.5 9.5C2.5 13.366 5.63401 16.5 9.5 16.5C13.366 16.5 16.5 13.366 16.5 9.5Z" fill="#f5a623"></path>
<path d="M15 15L16.5 16.5" stroke="#f5a623" stroke-width="2" stroke-linecap="round" stroke-linejoin="round"></path>
<path d="M16.9333 19.0252C16.3556 18.4475 16.3556 17.5109 16.9333 16.9333C17.5109 16.3556 18.4475 16.3556 19.0252 16.9333L21.0667 18.9748C21.6444 19.5525 21.6444 20.4891 21.0667 21.0667C20.4891 21.6444 19.5525 21.6444 18.9748 21.0667L16.9333 19.0252Z" stroke="#f5a623" stroke-width="2" stroke-linecap="round" stroke-linejoin="round"></path>
<path d="M16.5 9.5C16.5 5.63401 13.366 2.5 9.5 2.5C5.63401 2.5 2.5 5.63401 2.5 9.5C2.5 13.366 5.63401 16.5 9.5 16.5C13.366 16.5 16.5 13.366 16.5 9.5Z" stroke="#f5a623" stroke-width="2" stroke-linecap="round" stroke-linejoin="round"></path>
</svg>